<?xml version="1.0" encoding="UTF-8" standalone="no"?>
<!DOCTYPE svg PUBLIC "-//W3C//DTD SVG 1.1//EN" "http://www.w3.org/Graphics/SVG/1.1/DTD/svg11.dtd">
<svg width="100%" height="100%" viewBox="0 0 149 155" version="1.1" xmlns="http://www.w3.org/2000/svg" xmlns:xlink="http://www.w3.org/1999/xlink" xml:space="preserve" xmlns:serif="http://www.serif.com/" style="fill-rule:evenodd;clip-rule:evenodd;stroke-linejoin:round;stroke-miterlimit:2;">
    <g transform="matrix(1.46758,0,0,1.46758,-543.541,-360.616)">
        <g id="Layer-1" serif:id="Layer 1">
            <g transform="matrix(1,0,0,1,0,-6.397)">
                <path d="M457.074,267.109L449.848,267.109L449.848,259.614L457.074,259.614L457.074,267.109ZM442.622,282.099L442.622,297.09L435.396,297.09L435.396,304.586L428.171,304.586L428.171,312.081L413.719,312.081L413.719,319.577L399.268,319.577L399.268,312.081L406.494,312.081L406.494,304.586L420.945,304.586L420.945,297.09L428.171,297.09L428.171,289.595L435.396,289.595L435.396,282.099L442.622,282.099ZM464.299,259.613L464.299,252.118L442.622,252.118L442.622,259.613L435.396,259.613L435.396,267.109L428.171,267.109L428.171,274.604L420.945,274.604L420.945,282.099L413.719,282.099L413.719,289.595L406.494,289.595L406.494,297.09L399.268,297.09L399.268,304.586L392.042,304.586L392.042,312.081L384.816,312.081L384.816,319.577L392.042,319.577L392.042,327.072L384.816,327.072L384.816,334.568L377.591,334.568L377.591,349.559L384.816,349.559L384.816,342.063L392.042,342.063L392.042,334.568L406.494,334.568L406.494,327.072L420.945,327.072L420.945,319.577L435.396,319.577L435.396,312.081L442.622,312.081L442.622,304.586L449.848,304.586L449.848,289.595L457.074,289.595L457.074,282.099L464.299,282.099L464.299,274.604L471.525,274.604L471.525,259.613L464.299,259.613Z" style="fill-rule:nonzero;"/>
            </g>
            <g transform="matrix(-1,0,0,1,849.116,53.565)">
                <rect x="420.945" y="267.11" width="7.226" height="7.495"/>
            </g>
            <g transform="matrix(1,0,0,1,0,98.539)">
                <rect x="370.365" y="244.623" width="7.226" height="7.495"/>
            </g>
        </g>
    </g>
</svg>
